<svg id="Layer_1" data-name="Layer 1" xmlns="http://www.w3.org/2000/svg" viewBox="0 0 710.37 227.07"><defs><style>.cls-1{fill:#ff6400;}</style></defs><path class="cls-1" d="M155.24,32.61a2.06,2.06,0,0,1,2,2v.61a2.05,2.05,0,0,0,2,2h1a2,2,0,0,1,2,2v.55c0,1.13.58,2.05,1.28,2.05s1.28.92,1.28,2V54a2.05,2.05,0,0,1-2.05,2h-13.4a2.05,2.05,0,0,1-2-2V48.73a2.05,2.05,0,0,0-2-2h-2.66a2.05,2.05,0,0,1-2-2V44a2.05,2.05,0,0,0-2.05-2h-12a2.05,2.05,0,0,0-2.05,2v.64a2.05,2.05,0,0,1-2,2h-1.87a2.05,2.05,0,0,0-2,2V54a2,2,0,0,0,2,2h5.21a2.05,2.05,0,0,1,2,2.05v.61a2.05,2.05,0,0,0,2,2h8.39a2.05,2.05,0,0,1,2,2.05v.61a2.05,2.05,0,0,0,2.05,2h8.77a2.05,2.05,0,0,1,2,2v.62a2.05,2.05,0,0,0,2.05,2h2.07a2.06,2.06,0,0,1,2.05,2v.61a2.05,2.05,0,0,0,2,2h0a2.05,2.05,0,0,1,2,2V94.47a1.86,1.86,0,0,1-1.59,2,1.87,1.87,0,0,0-1.59,2v2.35a2.05,2.05,0,0,1-2.05,2h-1a2.06,2.06,0,0,0-2.05,2v.62a2.05,2.05,0,0,1-2,2h-5.58a2.05,2.05,0,0,0-2.05,2v.56a2,2,0,0,1-2,2H111.88a2.05,2.05,0,0,1-2-2v-.56a2.05,2.05,0,0,0-2-2h-2.86a2.05,2.05,0,0,1-2-2v-.39a2.05,2.05,0,0,0-2.05-2h-1a2.05,2.05,0,0,1-2-2.05V95.79c0-1.13-.57-2.05-1.28-2.05s-1.27-.92-1.27-2v-10a2,2,0,0,1,2-2h12.81a2.05,2.05,0,0,1,2,2V87a2,2,0,0,0,2,2h2a2.05,2.05,0,0,1,2,2v.61a2.05,2.05,0,0,0,2,2h11.47a2.05,2.05,0,0,0,2-2v-.62a2.05,2.05,0,0,1,2.05-2h4.9a2,2,0,0,0,2-2v-.62a2,2,0,0,0-2-2h-1.46a2.06,2.06,0,0,1-2-2v-.62a2.05,2.05,0,0,0-2-2h-4.55a2.05,2.05,0,0,1-2-2.05V77a2,2,0,0,0-2-2h-7.23a2.05,2.05,0,0,1-2-2v-.65a2.06,2.06,0,0,0-2-2H110a2.05,2.05,0,0,1-2-2v-.62a2.05,2.05,0,0,0-2-2h-2.65a2.05,2.05,0,0,1-2-2v-.61a2.05,2.05,0,0,0-2-2.05h-1a2.06,2.06,0,0,1-2.05-2V44a2.06,2.06,0,0,1,2.05-2h.44a2.05,2.05,0,0,0,2-2.05v-.55a2.05,2.05,0,0,1,2-2h1a2.05,2.05,0,0,0,2-2v-.61a2.05,2.05,0,0,1,2-2h2.66a2.05,2.05,0,0,0,2-2.05V30a2.06,2.06,0,0,1,2-2h32.47a2.05,2.05,0,0,1,2,2v.55a2.05,2.05,0,0,0,2.05,2.05Z"/><path class="cls-1" d="M196.34,2.14V110.26a2.05,2.05,0,0,1-2.05,2H176a2.05,2.05,0,0,1-2.05-2V6.78c0-2.18,2.34-2.14,4-2,3.5-.24.59-4.39,4.09-4.64h12.27A2.05,2.05,0,0,1,196.34,2.14Z"/><path class="cls-1" d="M275,44.06v66.26a2.05,2.05,0,0,1-2,2.05H254.38a2.05,2.05,0,0,1-2-2.05v-9.77a1.85,1.85,0,0,0-1.57-2c-1.13,0-1.74,1.49-1.58,2.68a2.05,2.05,0,0,1-2,2c-3.69-.35-2.21,4.82-2.49,7a2.05,2.05,0,0,1-2,2h-17a2.05,2.05,0,0,1-2-2c.2-2.89-2.7-2.44-4.67-2.43-4.11-.53.46-5.12-5.87-4.55-4.28-.59.71-5.33-6-4.74a2.05,2.05,0,0,1-2.05-2V77A2.05,2.05,0,0,1,207,75c6.74.58,1.77-4.11,6-4.71,7.14.43.25-4.17,8.5-3.56,3,0,1.06-2.92,4.09-3h17a2,2,0,0,1,2,2c-.62,7.43,3.87,2.16,4.53,6.52-.15,1.17.45,2.69,1.58,2.65a1.85,1.85,0,0,0,1.57-2V58.19c-.7-4.88-3.17,2.25-2.66-9.4-.33-3.92-5.35,0-5.12-4.73A2.06,2.06,0,0,0,242.51,42h-8.59a2.05,2.05,0,0,0-2,2,2.19,2.19,0,0,1-2,2.67c-1.67,0-4.71-.45-4.71,2v5.3a2.05,2.05,0,0,1-2.05,2H210.9a2.05,2.05,0,0,1-2.05-2v-10A1.87,1.87,0,0,1,210.41,42c2.84-.35.09-4.78,4.07-4.56,3.53-.26.56-4.45,4.09-4.71h2.87c3.54-.26.55-4.46,4.09-4.72h24.66a2.05,2.05,0,0,1,2.05,2.05,2.18,2.18,0,0,0,2,2.67h2.66c3.45.22.65,4.35,4.1,4.57,5.11-.4,1.24,4.34,5.11,4.7h6.76A2.06,2.06,0,0,1,275,44.06ZM243.12,79.67a2.23,2.23,0,0,1-2-2.78,2.05,2.05,0,0,0-2.05-2h-10.8c-3.6.27-.49,4.57-4.09,4.83-1.73.14-5.68-.77-5.67,2v5.43a2,2,0,0,0,2.05,1.94h3.62c3.55.25.54,4.48,4.09,4.73H239a2.2,2.2,0,0,0,2.05-2.69c.24-4.83,10.95.75,11.19-4.09C252.59,77.24,251.87,80.13,243.12,79.67Z"/><path class="cls-1" d="M366.79,58.12V82.27a2.1,2.1,0,0,1-2.36,2,2.06,2.06,0,0,0-2,2v10c0,2.24-2.43,2.1-4,2-4.2.54.57,5.3-5.88,4.73a2.05,2.05,0,0,0-2,2c.27,4.83-6.44.3-6.72,4.55a2.15,2.15,0,0,1-2.05,2.53H321.8a2,2,0,0,1-2-2c-.28-1.83,1.09-7.12-2.05-7.09-5.8.43-2.1-2.46-5.84-2.75-1.57-.11-3.75-.08-3.77,2V133a2.05,2.05,0,0,1-2.05,2H287.79a2.05,2.05,0,0,1-2.05-2V34.65a2.05,2.05,0,0,1,2.05-2c6.58.59,1.79-4.09,6-4.64h12.27a2.05,2.05,0,0,1,2.05,2v9.9c0,1.91,2,2.23,3.48,2.08a2.19,2.19,0,0,0,2.05-2.69c.21-3.42,4.31-.67,4.53-4.09V30a2.05,2.05,0,0,1,2-2h21.48a2.05,2.05,0,0,1,2.05,2,2.17,2.17,0,0,0,2.05,2.6h2.62c3.5.25.59,4.4,4.09,4.64,6.42-.57,1.7,4.16,5.88,4.71,1.63-.08,3.95-.18,4,2V54a2.05,2.05,0,0,0,2.05,2A2.1,2.1,0,0,1,366.79,58.12Zm-18.46,0a2.06,2.06,0,0,0-2.05-2c-1.67,0-4.87.52-4.87-2,.33-3.32-3-2.61-5.12-2.66a2.19,2.19,0,0,1-2-2.65,2.05,2.05,0,0,0-2.05-2H320.33c-3.92.39.08,5.14-5.24,4.7-3.72.28-.26,4.94-4.71,4.7a2.06,2.06,0,0,0-2.05,2V82.34c.26,3.53,4.46.56,4.71,4.09-.19,4.8,5.49.36,5.24,5.25a2.05,2.05,0,0,0,2.05,2H332.2a2.2,2.2,0,0,0,2.05-2.66c0-2.64,3.4-2,5.11-2,3.54-.25.56-4.45,4.1-4.71,1.68,0,4.86.52,4.87-2Z"/><path class="cls-1" d="M433.08,32.61a2.05,2.05,0,0,1,2.05,2v.61a2.05,2.05,0,0,0,2.05,2h1a2.05,2.05,0,0,1,2.05,2v.55c0,1.13.57,2.05,1.28,2.05s1.27.92,1.27,2V54a2,2,0,0,1-2,2H427.35a2,2,0,0,1-2-2V48.73a2.05,2.05,0,0,0-2.05-2H420.6a2.05,2.05,0,0,1-2.05-2V44a2,2,0,0,0-2-2h-12a2,2,0,0,0-2,2v.64a2.06,2.06,0,0,1-2.05,2h-1.87a2.05,2.05,0,0,0-2.05,2V54a2.05,2.05,0,0,0,2.05,2h5.2a2.06,2.06,0,0,1,2.05,2.05v.61a2.05,2.05,0,0,0,2,2h8.4a2.05,2.05,0,0,1,2,2.05v.61a2.05,2.05,0,0,0,2,2h8.78a2.06,2.06,0,0,1,2.05,2v.62a2,2,0,0,0,2,2h2.07a2.05,2.05,0,0,1,2.05,2v.61a2.05,2.05,0,0,0,2.05,2h0a2.05,2.05,0,0,1,2,2V94.47a1.87,1.87,0,0,1-1.59,2,1.87,1.87,0,0,0-1.6,2v2.35a2.05,2.05,0,0,1-2,2h-1a2.05,2.05,0,0,0-2,2v.62a2.05,2.05,0,0,1-2.05,2h-5.58a2,2,0,0,0-2,2v.56a2.05,2.05,0,0,1-2.05,2H389.72a2.05,2.05,0,0,1-2.05-2v-.56a2,2,0,0,0-2-2h-2.87a2.06,2.06,0,0,1-2.05-2v-.39a2.05,2.05,0,0,0-2-2h-1a2.05,2.05,0,0,1-2-2.05V95.79c0-1.13-.58-2.05-1.28-2.05s-1.28-.92-1.28-2v-10a2.05,2.05,0,0,1,2-2H387.9a2,2,0,0,1,2,2V87A2.05,2.05,0,0,0,392,89h2a2.05,2.05,0,0,1,2,2v.61a2.05,2.05,0,0,0,2.05,2h11.47a2.05,2.05,0,0,0,2.05-2v-.62a2,2,0,0,1,2-2h4.9a2.05,2.05,0,0,0,2.05-2v-.62a2.05,2.05,0,0,0-2.05-2h-1.45a2.06,2.06,0,0,1-2.05-2v-.62a2.05,2.05,0,0,0-2.05-2h-4.55a2.05,2.05,0,0,1-2-2.05V77a2.05,2.05,0,0,0-2.05-2h-7.22a2.05,2.05,0,0,1-2.05-2v-.65a2.05,2.05,0,0,0-2.05-2h-5.22a2.05,2.05,0,0,1-2-2v-.62a2,2,0,0,0-2-2H381.1a2.05,2.05,0,0,1-2.05-2v-.61a2.05,2.05,0,0,0-2-2.05h-1a2.05,2.05,0,0,1-2-2V44a2.05,2.05,0,0,1,2-2h.43a2.05,2.05,0,0,0,2.05-2.05v-.55a2.05,2.05,0,0,1,2.05-2h1a2.06,2.06,0,0,0,2.05-2v-.61a2.05,2.05,0,0,1,2-2h2.66a2.05,2.05,0,0,0,2.05-2.05V30a2,2,0,0,1,2-2H424.9a2,2,0,0,1,2,2v.55A2.06,2.06,0,0,0,429,32.61Z"/><path class="cls-1" d="M524,110.26a2.06,2.06,0,0,1-2,2H503.66a2.06,2.06,0,0,1-2-2V53.42c-.05-2.14-2.2-2.15-3.8-2.05-3.53-.25-.56-4.44-4.09-4.7H483.65c-3.53.26-.57,4.45-4.1,4.7H476.5a2.05,2.05,0,0,0-2,2.05v56.84c-.08,2.72.46,1.94-2.2,2H453.87a2.06,2.06,0,0,1-2-2V6.78c.05-2.17,2.31-2.14,3.94-2,3.5-.25.59-4.4,4.1-4.65h12.27a2.07,2.07,0,0,1,2.05,2.05l.11,37.71c0,2.63,3.36,2,5.05,2,4.14-.54-.48-5.2,5.86-4.63,4.66-.32-.56-9,4.09-9.29h13.92a2.05,2.05,0,0,1,2,2.05,2.17,2.17,0,0,0,2,2.59h2.63c3.5.25.59,4.4,4.09,4.65,2-.13,4.07,0,3.83,2.66,0,2.22,2.4,2.11,4,2a2.07,2.07,0,0,1,2,2Z"/><path class="cls-1" d="M557.15,21.27a2.06,2.06,0,0,1-2,2.05H536.84a2.06,2.06,0,0,1-2.05-2.05V6.78c0-2.2,2.35-2.12,4-2,3.5-.25.59-4.4,4.09-4.65C562.67.2,556-3.08,557.15,21.27Zm0,8.74v80.25a2.06,2.06,0,0,1-2,2H536.84a2.06,2.06,0,0,1-2.05-2V34.65a2.05,2.05,0,0,1,2.05-2c1.61.07,3.9.18,3.95-2a2.16,2.16,0,0,1,2-2.6H555.1A2.05,2.05,0,0,1,557.15,30Z"/><path class="cls-1" d="M583.8,4.76a2.05,2.05,0,0,0,2-2V2.16a2.05,2.05,0,0,1,2-2.05h9.44a2.05,2.05,0,0,1,2,2.05V25.93a2.05,2.05,0,0,0,2,2.05h16.47a2.05,2.05,0,0,1,2,2.05v9.89a2.05,2.05,0,0,1-2,2h-11A2.05,2.05,0,0,0,604.79,44v.62a2.05,2.05,0,0,1-2,2h-1.32a2.05,2.05,0,0,0-2,2V98.52a2.05,2.05,0,0,0,2,2h16.47a2.06,2.06,0,0,1,2,2v7.66a2,2,0,0,1-2,2H586.25a2,2,0,0,1-2-2v-.48a2,2,0,0,0-2-2,2,2,0,0,1-2-2v-.46a1.86,1.86,0,0,0-1.57-2,1.86,1.86,0,0,1-1.57-2V44A2.05,2.05,0,0,0,575,42h-10.6a2.05,2.05,0,0,1-2-2V30a2.05,2.05,0,0,1,2-2.05h7.66a2.05,2.05,0,0,0,2-2.05v-.55a2.06,2.06,0,0,1,2-2h1.78A2.06,2.06,0,0,0,580,21.29V6.81a2.05,2.05,0,0,1,2-2Z"/><path class="cls-1" d="M70,136.06v66.26A2.05,2.05,0,0,1,68,204.37H49.44a2.05,2.05,0,0,1-2-2.05v-9.77a1.85,1.85,0,0,0-1.57-2c-1.13,0-1.74,1.49-1.58,2.68a2.05,2.05,0,0,1-2,2.05c-3.69-.35-2.21,4.82-2.49,7a2.05,2.05,0,0,1-2,2.05h-17a2.05,2.05,0,0,1-2.05-2.05c.2-2.89-2.7-2.44-4.67-2.43-4.11-.53.46-5.12-5.87-4.55-4.28-.59.71-5.33-6-4.74a2.05,2.05,0,0,1-2-2V169a2.05,2.05,0,0,1,2.05-2c6.74.58,1.77-4.11,6.05-4.71,7.14.43.25-4.17,8.5-3.56,3,0,1.06-2.92,4.09-2.95h17a2,2,0,0,1,2,2c-.62,7.43,3.87,2.16,4.53,6.52-.15,1.17.45,2.69,1.58,2.65a1.85,1.85,0,0,0,1.57-2V150.19c-.7-4.88-3.17,2.25-2.66-9.4-.33-3.92-5.35,0-5.12-4.73a2.06,2.06,0,0,0-2-2.05H29a2.05,2.05,0,0,0-2.05,2,2.19,2.19,0,0,1-2,2.67c-1.67,0-4.71-.45-4.71,2v5.3a2.05,2.05,0,0,1-2.05,2H6a2.05,2.05,0,0,1-2-2v-10A1.87,1.87,0,0,1,5.47,134c2.84-.35.09-4.78,4.07-4.56,3.53-.26.55-4.45,4.09-4.71H16.5c3.54-.26.55-4.46,4.09-4.72H45.25a2.05,2.05,0,0,1,2,2,2.18,2.18,0,0,0,2,2.67H52c3.45.22.65,4.35,4.1,4.57,5.11-.4,1.24,4.34,5.11,4.7H68A2.06,2.06,0,0,1,70,136.06ZM38.18,171.67a2.23,2.23,0,0,1-2-2.78,2.05,2.05,0,0,0-2-2H23.29c-3.6.27-.49,4.57-4.09,4.83-1.73.14-5.68-.77-5.67,2.05v5.43a2,2,0,0,0,2.05,1.94H19.2c3.55.25.54,4.48,4.09,4.73h10.8a2.2,2.2,0,0,0,2-2.69c.24-4.83,11,.75,11.19-4.09C47.65,169.24,46.93,172.13,38.18,171.67Z"/><path class="cls-1" d="M161.85,150.12v24.15a2.1,2.1,0,0,1-2.36,2,2.06,2.06,0,0,0-2,2.05v10c0,2.24-2.43,2.1-4,2.05-4.2.54.57,5.3-5.88,4.73a2.05,2.05,0,0,0-2,2.05c.27,4.83-6.44.3-6.72,4.55a2.15,2.15,0,0,1-2.05,2.53H116.86a2,2,0,0,1-2-2c-.28-1.83,1.09-7.12-2-7.09-5.8.43-2.1-2.46-5.84-2.75-1.57-.11-3.75-.08-3.77,2V225a2.05,2.05,0,0,1-2,2H82.85a2.05,2.05,0,0,1-2-2V126.65a2.05,2.05,0,0,1,2-2.05c6.58.59,1.79-4.09,6-4.64h12.27a2.05,2.05,0,0,1,2,2v9.9c0,1.91,2,2.23,3.48,2.08a2.19,2.19,0,0,0,2-2.69c.21-3.42,4.31-.67,4.53-4.09V122a2,2,0,0,1,2-2h21.49a2.05,2.05,0,0,1,2.05,2,2.17,2.17,0,0,0,2,2.6h2.62c3.5.25.59,4.4,4.09,4.64,6.42-.57,1.7,4.16,5.88,4.71,1.63-.08,3.95-.18,4,2v10a2.05,2.05,0,0,0,2.05,2A2.1,2.1,0,0,1,161.85,150.12Zm-18.47,0a2.05,2.05,0,0,0-2-2.05c-1.67,0-4.87.52-4.87-2,.33-3.32-3-2.61-5.12-2.66a2.19,2.19,0,0,1-2-2.65,2.05,2.05,0,0,0-2-2.05H115.39c-3.92.39.08,5.14-5.24,4.7-3.72.28-.26,4.94-4.71,4.7a2.06,2.06,0,0,0-2,2.05v24.22c.26,3.53,4.46.56,4.71,4.09-.19,4.8,5.49.36,5.24,5.25a2.05,2.05,0,0,0,2,2h11.87a2.2,2.2,0,0,0,2-2.66c0-2.64,3.4-2,5.11-2,3.54-.25.56-4.45,4.1-4.71,1.68,0,4.86.52,4.86-2Z"/><path class="cls-1" d="M223.51,120a2.05,2.05,0,0,1,2.05,2v.55a2.05,2.05,0,0,0,2.05,2h2.62a2.05,2.05,0,0,1,2.05,2v.55a2,2,0,0,0,2,2h1.79a2.07,2.07,0,0,1,2,2.05v.61a2.05,2.05,0,0,0,2,2.05h2a2.06,2.06,0,0,1,2.05,2v10a2,2,0,0,0,2,2h.32a2.05,2.05,0,0,1,2,2v24.15a2.06,2.06,0,0,1-2,2.05h-.32a2,2,0,0,0-2,2v10a2.07,2.07,0,0,1-2.05,2h-2a2,2,0,0,0-2,2v.64a2.06,2.06,0,0,1-2,2.05h-1.79a2.05,2.05,0,0,0-2,2v.46a2.05,2.05,0,0,1-2.05,2h-2.62a2.05,2.05,0,0,0-2.05,2.05v.49a2.05,2.05,0,0,1-2.05,2H192.73a2,2,0,0,1-2-2v-.49a2.05,2.05,0,0,0-2.05-2.05H186a2.05,2.05,0,0,1-2.05-2v-.46a2.05,2.05,0,0,0-2.05-2h-1.78a2.05,2.05,0,0,1-2-2.05v-.64a2,2,0,0,0-2-2h-2a2.06,2.06,0,0,1-2.05-2v-10a2,2,0,0,0-2-2h-.32a2.06,2.06,0,0,1-2-2.05V150.13a2.05,2.05,0,0,1,2-2H170a2,2,0,0,0,2-2V136a2.05,2.05,0,0,1,2.05-2h2a2.05,2.05,0,0,0,2-2.05v-.61a2.05,2.05,0,0,1,2-2h1.78a2.06,2.06,0,0,0,2.05-2v-.55a2.05,2.05,0,0,1,2.05-2h2.62a2.05,2.05,0,0,0,2.05-2V122a2,2,0,0,1,2-2Zm-21.28,18.71a2.05,2.05,0,0,0-2,2v.6a2.06,2.06,0,0,1-2.05,2h-1.39a2.05,2.05,0,0,0-2.05,2V146a2,2,0,0,1-2,2h-.57a2.05,2.05,0,0,0-2.05,2v24.15a2.06,2.06,0,0,0,2.05,2.05h.57a2,2,0,0,1,2,2V179a2.05,2.05,0,0,0,2.05,2h1.39a2.05,2.05,0,0,1,2.05,2.05v.61a2.05,2.05,0,0,0,2,2.05H214a2.05,2.05,0,0,0,2-2.05v-.61a2.05,2.05,0,0,1,2.05-2.05h1a2,2,0,0,0,2-2v-.62a2.05,2.05,0,0,1,2.05-2h1a2.06,2.06,0,0,0,2.05-2.05V150.13a2.05,2.05,0,0,0-2.05-2h-1a2.05,2.05,0,0,1-2.05-2v-.62a2,2,0,0,0-2-2h-1a2.06,2.06,0,0,1-2.05-2v-.6a2.05,2.05,0,0,0-2-2Z"/><path class="cls-1" d="M311.67,150.74v-10a2.06,2.06,0,0,0-2-2.05h-6.7a2.19,2.19,0,0,1-2-2.67,2.05,2.05,0,0,0-2.05-2.05H287c-4.27.58.69,5.31-6,4.72-3.53.26-.57,4.45-4.1,4.7a2.06,2.06,0,0,0-2.21,2v24.36a2.05,2.05,0,0,0,2.21,2c4.64.32-.55,8.9,4.1,9.21,1.61-.06,3.95-.19,4,2a2.2,2.2,0,0,0,2,2.67h11.86c3.53-.25.56-4.45,4.09-4.71h6.66a2,2,0,0,0,2-2v-5.32a2.05,2.05,0,0,1,2.05-2h13a2.05,2.05,0,0,1,2.05,2v14.73a2.05,2.05,0,0,1-2.05,2.05c-1.93-.2-3.46.46-3.24,2.69-.28,3.68-4.72.41-5,4.09.2,2-1.38,2.7-3.1,2.51-3.45.22-.65,4.35-4.1,4.58H277.19a2.16,2.16,0,0,1-2.05-2.54c0-2.49-3-2-4.7-2-3.81-.36-.08-5-5.12-4.56-4-.42.18-5.21-5.35-4.73a2.06,2.06,0,0,1-2.05-2.05v-10c-.05-3-3.39-1.05-3.45-4.09V150.12a1.91,1.91,0,0,1,1.73-2c2.74,0,1.45-5.71,1.72-7.36.3-3.8,5.06-.29,5.35-4.09v-5.2a2.05,2.05,0,0,1,2.05-2.05c5.13.4,1.24-4.35,5.12-4.71,1.61,0,4.29.31,4.29-2a2.2,2.2,0,0,1,2-2.67h34.48a2.05,2.05,0,0,1,2.05,2.05c-.41,5.16,6.65.35,7,4.71-.22,4.67,4.79.8,5.11,4.71-.14,1.19.55,2.56,1.69,2.52a1.9,1.9,0,0,1,1.69,2.05v14.74a2.05,2.05,0,0,1-2.05,2h-13A2.05,2.05,0,0,1,311.67,150.74Z"/><path class="cls-1" d="M388.23,122v19.32a2.06,2.06,0,0,1-2.05,2.05H370.81a2.05,2.05,0,0,0-2.05,2v5.33c0,3-4.53,1.85-6.3,2a2.06,2.06,0,0,0-2,2.05v47.42a2.05,2.05,0,0,1-2.05,2H340.11a2.05,2.05,0,0,1-2.05-2V126.65a2.05,2.05,0,0,1,2.05-2.05c6.5.59,1.85-4,6-4.52,15.78.84,14.41-4.25,14.32,11.82,0,2.78,4.9,2.78,4.86,0v-5.25a2.05,2.05,0,0,1,2-2.05c2.05.07,4.44.24,4.22-2.6a2.05,2.05,0,0,1,2-2h12.59A2.05,2.05,0,0,1,388.23,122Z"/><path class="cls-1" d="M462.93,120a2.05,2.05,0,0,1,2,2.05v5.19c0,1.13-.67,2-1.49,2s-1.5.92-1.5,2v5.34c0,1.12-.67,2.05-1.5,2.05s-1.49.92-1.49,2V146c0,1.13-.67,2.05-1.5,2.05s-1.49.92-1.49,2v5.32c0,1.13-.68,2.05-1.5,2.05s-1.5.92-1.5,2v5.32c0,1.12-.67,2-1.49,2s-1.5.93-1.5,2v5.32c0,1.13-.67,2-1.49,2s-1.5.92-1.5,2v5.33c0,1.12-.67,2-1.5,2s-1.49.92-1.49,2.05v5.35c0,1.12-.67,2-1.5,2s-1.49.92-1.49,2.05v5c0,1.13-.68,2.05-1.5,2.05s-1.5.92-1.5,2v3.45c0,1.12-.67,2-1.49,2s-1.5.92-1.5,2v2c0,1.12-.67,2-1.49,2s-1.5.92-1.5,2v.46a2.05,2.05,0,0,1-2.05,2.05h-1.89a2,2,0,0,0-2,2V225a2.05,2.05,0,0,1-2.05,2H385.67a2.05,2.05,0,0,1-2-2V210.91a2.05,2.05,0,0,1,2-2H413a2.05,2.05,0,0,0,2.05-2.05v-.46a2,2,0,0,1,2-2h1.48a2.05,2.05,0,0,0,2.05-2.05v-5a2.05,2.05,0,0,1,2-2.05h.79a2,2,0,0,0,2-2v-.64a2.05,2.05,0,0,0-2-2.05H401.86a2.06,2.06,0,0,1-2.05-2.05v-5.32c0-1.12-.67-2-1.49-2s-1.5-.93-1.5-2.05v-5.32c0-1.13-.67-2-1.49-2s-1.5-.92-1.5-2.05v-5.32c0-1.12-.67-2-1.5-2s-1.49-.92-1.49-2v-5.32c0-1.13-.67-2.05-1.5-2.05s-1.49-.92-1.49-2v-5.32c0-1.13-.68-2-1.5-2s-1.5-.92-1.5-2.05V136c0-1.13-.67-2.05-1.49-2.05s-1.5-.92-1.5-2V122a2.05,2.05,0,0,1,2.05-2.05h18.33a2.06,2.06,0,0,1,2.05,2.05v5.19c0,1.13.67,2,1.49,2s1.5.92,1.5,2v5.34c0,1.12.67,2.05,1.49,2.05s1.5.92,1.5,2V146c0,1.13.67,2.05,1.5,2.05s1.49.92,1.49,2v5.32c0,1.13.67,2.05,1.5,2.05s1.49.92,1.49,2v5.32c0,1.12.68,2,1.5,2s1.5.93,1.5,2v5.32a2.05,2.05,0,0,0,2,2h4.28a1.81,1.81,0,0,0,1.83-2l-.58-5.34c-.12-1.12.45-2,1.27-2s1.5-.92,1.5-2v-5.32c0-1.13.67-2,1.49-2s1.5-.92,1.5-2.05v-5.32c0-1.12.67-2,1.5-2s1.49-.92,1.49-2.05v-5.31c0-1.12.68-2,1.5-2s1.49-.93,1.49-2.05v-5.34c0-1.12.68-2,1.5-2s1.5-.92,1.5-2V122a2.05,2.05,0,0,1,2-2.05Z"/><path class="cls-1" d="M551.61,150.12v24.15a2.1,2.1,0,0,1-2.36,2,2.06,2.06,0,0,0-2,2.05v10c0,2.24-2.42,2.1-4,2.05-4.2.54.56,5.3-5.88,4.73a2.05,2.05,0,0,0-2.05,2.05c.27,4.83-6.44.3-6.71,4.55a2.15,2.15,0,0,1-2,2.53H506.62a2.05,2.05,0,0,1-2.05-2c-.28-1.83,1.1-7.12-2-7.09-5.8.43-2.1-2.46-5.85-2.75-1.56-.11-3.74-.08-3.77,2V225a2,2,0,0,1-2,2H472.6a2,2,0,0,1-2-2V126.65a2.05,2.05,0,0,1,2-2.05c6.59.59,1.8-4.09,6-4.64h12.27a2,2,0,0,1,2,2v9.9c0,1.91,2,2.23,3.49,2.08a2.19,2.19,0,0,0,2.05-2.69c.21-3.42,4.31-.67,4.52-4.09V122a2.06,2.06,0,0,1,2-2h21.49a2.06,2.06,0,0,1,2,2,2.16,2.16,0,0,0,2,2.6h2.63c3.5.25.59,4.4,4.09,4.64,6.42-.57,1.69,4.16,5.88,4.71,1.63-.08,3.95-.18,4,2v10a2.05,2.05,0,0,0,2,2A2.1,2.1,0,0,1,551.61,150.12Zm-18.47,0a2.05,2.05,0,0,0-2-2.05c-1.67,0-4.87.52-4.86-2,.32-3.32-3-2.61-5.12-2.66a2.2,2.2,0,0,1-2.05-2.65,2.05,2.05,0,0,0-2-2.05H505.15c-3.92.39.08,5.14-5.25,4.7-3.72.28-.25,4.94-4.7,4.7a2.05,2.05,0,0,0-2.05,2.05v24.22c.25,3.53,4.45.56,4.71,4.09-.2,4.8,5.48.36,5.24,5.25a2.05,2.05,0,0,0,2,2H517a2.19,2.19,0,0,0,2-2.66c0-2.64,3.41-2,5.12-2,3.53-.25.56-4.45,4.09-4.71,1.69,0,4.86.52,4.87-2Z"/><path class="cls-1" d="M632.48,202.26a2.06,2.06,0,0,1-2.05,2.05H612.17a2.06,2.06,0,0,1-2-2.05V145.42c0-2.14-2.2-2.15-3.79-2-3.53-.25-.57-4.44-4.09-4.7H592.15c-3.52.26-.56,4.45-4.09,4.7h-3a2.06,2.06,0,0,0-2,2v56.84c-.07,2.72.46,1.94-2.2,2.05H562.38a2.06,2.06,0,0,1-2-2.05V98.78c.06-2.17,2.32-2.14,3.95-2,3.5-.25.59-4.4,4.09-4.65h12.27a2.07,2.07,0,0,1,2.06,2l.11,37.71c0,2.63,3.36,2,5.05,2,4.14-.54-.48-5.2,5.86-4.63,4.66-.32-.57-9,4.09-9.29h13.92a2.05,2.05,0,0,1,2,2.05,2.17,2.17,0,0,0,2.05,2.59h2.63c3.5.25.59,4.4,4.09,4.65,2-.13,4.06,0,3.83,2.66,0,2.22,2.4,2.11,4,2a2.05,2.05,0,0,1,2,2.05Z"/><path class="cls-1" d="M710.37,136.06v66.26a2.05,2.05,0,0,1-2,2.05H689.8a2.05,2.05,0,0,1-2-2.05v-9.77a1.85,1.85,0,0,0-1.57-2c-1.14,0-1.74,1.49-1.58,2.68a2.05,2.05,0,0,1-2,2.05c-3.69-.35-2.21,4.82-2.49,7a2.05,2.05,0,0,1-2,2.05h-17a2.05,2.05,0,0,1-2-2.05c.2-2.89-2.7-2.44-4.67-2.43-4.11-.53.46-5.12-5.87-4.55-4.28-.59.71-5.33-6.05-4.74a2.05,2.05,0,0,1-2-2V169a2.05,2.05,0,0,1,2-2c6.74.58,1.77-4.11,6.05-4.71,7.14.43.25-4.17,8.5-3.56,3,0,1.06-2.92,4.09-2.95h17a2,2,0,0,1,2,2c-.62,7.43,3.87,2.16,4.53,6.52-.15,1.17.45,2.69,1.57,2.65a1.85,1.85,0,0,0,1.58-2V150.19c-.7-4.88-3.17,2.25-2.66-9.4-.33-3.92-5.35,0-5.12-4.73a2.06,2.06,0,0,0-2.05-2.05h-8.59a2.05,2.05,0,0,0-2.05,2,2.19,2.19,0,0,1-2,2.67c-1.67,0-4.71-.45-4.71,2v5.3a2.05,2.05,0,0,1-2,2H646.32a2.05,2.05,0,0,1-2.05-2v-10a1.87,1.87,0,0,1,1.56-2.05c2.84-.35.09-4.78,4.07-4.56,3.53-.26.55-4.45,4.09-4.71h2.86c3.54-.26.56-4.46,4.1-4.72h24.66a2.06,2.06,0,0,1,2,2,2.18,2.18,0,0,0,2,2.67h2.66c3.45.22.65,4.35,4.1,4.57,5.11-.4,1.24,4.34,5.11,4.7h6.75A2.06,2.06,0,0,1,710.37,136.06Zm-31.83,35.61a2.23,2.23,0,0,1-2-2.78,2.05,2.05,0,0,0-2-2h-10.8c-3.6.27-.49,4.57-4.09,4.83-1.73.14-5.68-.77-5.67,2.05v5.43a2,2,0,0,0,2.05,1.94h3.62c3.55.25.54,4.48,4.09,4.73h10.8a2.21,2.21,0,0,0,2-2.69c.24-4.83,11,.75,11.19-4.09C688,169.24,687.29,172.13,678.54,171.67Z"/></svg>