<?xml version="1.0" standalone="no"?>
<!DOCTYPE svg PUBLIC "-//W3C//DTD SVG 20010904//EN"
 "http://www.w3.org/TR/2001/REC-SVG-20010904/DTD/svg10.dtd">
<svg version="1.0" xmlns="http://www.w3.org/2000/svg"
 width="224.000000pt" height="224.000000pt" viewBox="0 0 224.000000 224.000000"
 preserveAspectRatio="xMidYMid meet">
<metadata>
Created by potrace 1.14, written by Peter Selinger 2001-2017
</metadata>
<g transform="translate(0.000000,224.000000) scale(0.100000,-0.100000)"
fill="#000000" stroke="none">
<path d="M1469 1758 c-10 -4 -19 -12 -19 -18 0 -36 -16 -50 -60 -50 -35 0 -39
-3 -50 -35 -9 -27 -17 -35 -36 -35 -19 0 -26 -6 -30 -30 -4 -16 -16 -36 -28
-44 -21 -13 -22 -22 -21 -106 1 -60 6 -94 13 -99 16 -10 218 -8 228 2 4 4 8
33 9 64 1 48 4 57 23 64 12 5 28 6 36 3 17 -7 46 22 46 46 0 23 16 27 101 29
68 1 83 -6 90 -43 3 -11 18 -24 39 -31 34 -12 35 -13 38 -73 2 -50 7 -64 23
-72 18 -10 19 -20 17 -143 -3 -111 -5 -132 -19 -135 -11 -2 -19 8 -25 30 -7
23 -17 34 -32 36 -24 4 -46 35 -39 55 2 7 1 19 -4 28 -7 14 -30 16 -151 16
-152 0 -168 -2 -168 -22 0 -16 -22 -25 -61 -25 -22 0 -32 -6 -39 -25 -9 -23
-21 -30 -44 -26 -24 5 -46 -12 -46 -35 0 -26 -6 -30 -54 -38 -16 -3 -31 -7
-33 -10 -7 -7 -7 -336 0 -342 3 -4 20 -8 38 -9 33 -3 49 -18 49 -46 0 -19 20
-29 56 -29 19 0 26 -6 30 -30 6 -27 34 -47 51 -37 16 9 53 -13 53 -31 0 -11 6
-24 13 -29 9 -7 233 -11 295 -4 8 1 12 18 12 50 0 65 7 81 36 81 18 0 25 7 32
33 6 22 14 32 28 32 17 0 19 -8 20 -93 0 -59 5 -96 12 -101 15 -9 318 -8 328
1 10 10 7 1049 -3 1059 -4 4 -39 9 -77 11 -69 3 -70 3 -78 36 -7 24 -14 32
-31 32 -28 0 -47 17 -47 42 0 22 -13 28 -92 37 -3 1 -9 15 -13 31 -4 17 -10
30 -13 31 -40 5 -388 2 -403 -3z m241 -727 c4 -8 6 -20 3 -27 -8 -20 34 -35
93 -33 30 1 60 -3 66 -9 14 -14 18 -91 6 -114 -7 -14 -22 -17 -74 -17 -58 1
-104 -14 -90 -29 3 -2 1 -13 -5 -24 -9 -17 -20 -18 -112 -16 l-102 3 -5 30
c-5 27 -9 30 -50 33 -59 4 -70 15 -70 71 0 56 12 71 60 71 39 0 60 14 60 42 0
27 23 34 120 33 66 0 93 -4 100 -14z"/>
<path d="M265 1727 c-8 -4 -15 -19 -15 -32 0 -17 -6 -25 -17 -26 -28 -1 -66
-9 -72 -15 -3 -3 -6 -13 -6 -22 0 -9 -16 -24 -35 -33 -21 -10 -37 -26 -40 -40
-3 -14 -15 -26 -29 -29 -32 -7 -37 -28 -37 -154 1 -87 4 -110 16 -116 46 -21
55 -29 60 -51 5 -19 13 -25 40 -27 42 -4 58 -16 62 -45 3 -23 6 -24 81 -26 38
-1 47 -4 47 -18 0 -37 17 -47 82 -48 69 -1 92 -10 84 -30 -7 -18 21 -40 53
-41 67 -3 68 -4 75 -34 4 -21 11 -30 25 -30 34 0 51 -12 51 -36 0 -22 -28 -39
-56 -33 -38 7 -64 -3 -70 -26 -3 -14 -14 -29 -23 -34 -13 -6 -146 -8 -184 -2
-4 0 -13 15 -18 31 -7 18 -18 30 -30 31 -51 4 -59 13 -59 74 0 33 -5 55 -12
57 -30 11 -218 6 -228 -6 -5 -7 -9 -51 -7 -99 2 -67 6 -89 19 -99 12 -9 18
-31 20 -68 3 -53 4 -55 36 -65 19 -5 32 -16 32 -25 0 -25 21 -40 58 -40 28 0
35 -5 43 -30 6 -16 18 -31 27 -34 10 -3 122 -4 250 -4 182 1 234 4 243 14 6 8
8 14 5 14 -4 0 -2 9 4 20 9 16 21 20 66 20 53 0 56 2 67 30 8 21 21 33 42 38
26 7 30 13 33 46 2 28 9 40 22 43 26 7 28 19 28 163 0 144 -2 156 -29 163 -10
3 -24 19 -30 36 -9 26 -16 31 -43 31 -27 0 -35 6 -47 33 -15 34 -15 34 -122
36 -56 1 -58 2 -63 31 -7 33 -27 39 -116 38 -54 0 -68 6 -68 32 0 26 -17 34
-74 35 -44 0 -50 3 -56 25 -8 32 -4 90 7 100 4 5 22 10 38 12 22 2 31 9 33 26
2 12 11 26 20 31 19 10 197 10 206 0 4 -4 9 -17 11 -29 6 -29 4 -28 48 -33 21
-2 40 -6 42 -9 3 -3 6 -28 6 -56 1 -29 7 -56 13 -60 15 -12 206 -13 228 -1 15
8 18 23 18 99 0 70 -3 91 -15 98 -9 4 -19 21 -24 38 -5 22 -15 30 -37 34 -18
3 -30 12 -32 25 -6 33 -19 42 -63 43 -49 2 -59 7 -59 32 0 10 -6 22 -12 27
-17 10 -495 11 -513 0z"/>
</g>
</svg>
